<svg width="32" height="32" viewBox="0 0 32 32" fill="none" xmlns="http://www.w3.org/2000/svg">
<rect width="32" height="32" fill="#FDF8ED"/>
<path d="M12.7315 21V20.68L13.6115 20.504C14.0062 20.4187 14.2568 20.3227 14.3635 20.216C14.4808 20.1093 14.5395 19.8907 14.5395 19.56V11.672C14.5395 11.3307 14.4808 11.1067 14.3635 11C14.2568 10.8933 14.0062 10.8027 13.6115 10.728L12.7315 10.552V10.232H18.2675V10.552L17.3875 10.728C16.9928 10.8027 16.7368 10.8933 16.6195 11C16.5128 11.1067 16.4595 11.3307 16.4595 11.672V19.56C16.4595 19.8907 16.5128 20.1093 16.6195 20.216C16.7368 20.3227 16.9928 20.4187 17.3875 20.504L18.2675 20.68V21H12.7315Z" fill="black"/>
</svg>